<?xml version="1.0" standalone="no"?>
<!DOCTYPE svg PUBLIC "-//W3C//DTD SVG 20010904//EN"
 "http://www.w3.org/TR/2001/REC-SVG-20010904/DTD/svg10.dtd">
<svg version="1.0" xmlns="http://www.w3.org/2000/svg"
 width="512.000000pt" height="512.000000pt" viewBox="0 0 512.000000 512.000000"
 preserveAspectRatio="xMidYMid meet">
<metadata>
Created by potrace 1.14, written by Peter Selinger 2001-2017
</metadata>
<g transform="translate(0.000000,512.000000) scale(0.100000,-0.100000)"
fill="#000000" stroke="none">
<path d="M2527 4724 c-1 -2 -18 -6 -37 -9 -40 -6 -51 -10 -143 -55 -37 -18
-78 -43 -90 -56 -12 -13 -28 -24 -34 -24 -7 0 -13 -5 -13 -10 0 -6 -11 -21
-25 -34 -14 -13 -25 -28 -25 -35 0 -6 -4 -11 -8 -11 -4 0 -23 -30 -42 -67 -19
-38 -42 -77 -52 -88 -9 -11 -17 -24 -18 -30 -3 -27 -13 -55 -20 -55 -8 0 -23
-38 -21 -52 1 -5 -3 -8 -9 -8 -5 0 -10 -7 -10 -15 0 -8 -4 -15 -8 -15 -4 0 -8
-10 -9 -22 -1 -11 -7 -24 -14 -28 -6 -4 -8 -13 -5 -19 4 -6 0 -14 -8 -17 -9
-3 -16 -14 -16 -24 0 -10 -7 -26 -16 -34 -8 -9 -16 -25 -17 -35 0 -11 -4 -18
-8 -15 -4 2 -10 -9 -14 -26 -4 -16 -11 -30 -17 -30 -6 0 -9 -3 -6 -6 3 -3 -16
-48 -43 -100 -27 -52 -45 -94 -41 -94 4 0 2 -4 -4 -8 -11 -7 -47 -80 -42 -84
2 -2 -7 -17 -20 -35 -12 -17 -22 -34 -22 -38 0 -11 -104 -220 -113 -226 -5 -3
-9 -10 -9 -15 -2 -23 -11 -44 -19 -44 -5 0 -8 -3 -7 -7 1 -5 -15 -44 -36 -88
-22 -44 -39 -82 -38 -85 0 -3 -5 -12 -13 -20 -7 -8 -16 -26 -20 -40 -4 -14
-10 -27 -14 -30 -3 -3 -24 -43 -46 -90 -22 -47 -42 -87 -45 -90 -3 -3 -14 -25
-25 -50 -11 -25 -22 -47 -26 -50 -7 -6 -23 -53 -20 -59 2 -2 -1 -7 -6 -10 -11
-8 -86 -157 -83 -167 1 -4 -2 -10 -7 -13 -8 -6 -36 -60 -37 -73 -1 -4 -7 -13
-14 -20 -6 -6 -12 -20 -12 -30 0 -9 -8 -22 -17 -27 -10 -6 -14 -11 -10 -11 4
0 2 -10 -5 -22 -7 -13 -13 -25 -13 -28 -3 -14 -32 -69 -49 -95 -12 -16 -19
-30 -16 -30 2 0 -44 -98 -103 -218 -59 -120 -107 -221 -107 -224 0 -4 -6 -14
-13 -22 -7 -9 -22 -36 -32 -61 -11 -25 -22 -47 -25 -50 -5 -4 -19 -31 -25 -50
-3 -10 -61 -125 -75 -150 -8 -14 -15 -27 -15 -30 -1 -3 -15 -34 -32 -70 -17
-36 -34 -81 -39 -100 -4 -19 -9 -42 -12 -50 -18 -69 -1 -220 34 -297 7 -17 14
-36 14 -42 0 -6 5 -11 11 -11 5 0 8 -4 5 -8 -3 -5 4 -18 14 -30 11 -12 20 -26
20 -32 0 -5 5 -10 10 -10 6 0 10 -7 10 -16 0 -8 4 -13 8 -10 4 2 17 -8 27 -24
11 -16 30 -35 42 -41 13 -7 23 -16 23 -21 0 -4 6 -8 14 -8 8 0 16 -4 18 -8 5
-13 128 -69 168 -77 62 -12 203 -14 249 -4 26 6 54 12 63 14 28 6 120 54 158
83 19 15 39 25 45 24 5 -2 7 -1 3 3 -8 9 16 35 32 35 6 0 9 4 6 9 -4 5 -3 11
1 13 15 6 73 87 73 102 0 8 3 16 8 18 10 4 58 101 55 110 -2 4 1 8 6 8 5 0 12
10 16 23 4 12 8 24 9 27 1 3 38 77 81 165 44 88 78 162 76 164 -1 2 1 7 7 10
9 6 152 294 152 306 0 4 10 21 22 38 13 18 16 28 7 23 -11 -6 -11 -5 1 6 8 7
16 20 18 28 2 8 8 18 14 21 5 3 9 9 8 13 0 4 31 71 70 151 39 79 71 147 70
151 -1 4 2 10 7 13 12 7 87 163 85 174 -1 4 2 7 6 7 9 0 38 70 34 82 -1 4 3 8
8 8 9 0 23 26 30 55 1 6 11 22 21 36 10 14 16 29 12 33 -3 3 -1 6 5 6 7 0 12
9 12 19 0 11 3 21 8 23 6 3 44 73 47 88 0 3 30 63 65 135 36 71 65 132 65 135
0 3 8 16 17 29 14 20 20 22 32 12 9 -7 15 -16 14 -19 -3 -11 64 -146 76 -154
6 -4 7 -8 2 -8 -5 0 -3 -7 4 -15 7 -8 9 -15 4 -15 -5 0 -4 -4 1 -8 6 -4 21
-32 35 -62 14 -30 28 -56 33 -58 4 -2 7 -12 7 -22 0 -11 8 -23 18 -29 9 -5 15
-11 12 -13 -6 -5 31 -91 44 -99 4 -4 6 -11 2 -17 -3 -6 -2 -12 3 -14 10 -4
111 -206 111 -224 0 -7 4 -14 8 -16 9 -3 103 -193 101 -204 0 -4 3 -10 8 -13
10 -7 45 -80 49 -101 2 -8 8 -16 14 -18 5 -2 8 -8 4 -13 -3 -5 0 -9 6 -9 7 0
10 -6 7 -14 -3 -8 1 -17 9 -20 8 -3 13 -9 12 -13 -2 -11 54 -127 67 -135 5 -4
6 -8 2 -8 -9 0 23 -61 38 -72 6 -4 6 -8 2 -8 -9 0 23 -61 38 -72 6 -4 7 -8 3
-8 -4 0 17 -49 47 -109 30 -60 55 -114 55 -120 0 -6 5 -11 10 -11 6 0 10 -5
10 -11 0 -15 63 -143 72 -147 4 -2 8 -14 8 -27 0 -13 5 -27 10 -30 6 -4 20
-28 32 -53 12 -26 27 -50 32 -54 6 -4 8 -8 4 -8 -10 0 41 -100 64 -124 10 -11
18 -23 18 -26 0 -4 11 -19 25 -34 14 -15 25 -25 25 -22 0 3 11 -5 24 -17 13
-12 31 -27 39 -34 26 -20 151 -80 182 -87 17 -4 44 -9 60 -13 70 -15 179 -6
255 21 41 14 80 27 85 28 6 2 12 5 15 9 3 3 22 15 43 28 20 12 37 27 37 32 0
5 3 8 8 7 12 -4 62 45 55 55 -3 6 -1 7 4 4 12 -7 64 66 103 143 13 25 22 45
21 45 -1 0 0 7 2 15 21 69 25 100 24 160 -1 39 2 70 7 70 5 0 4 6 -2 13 -6 7
-13 25 -16 41 -8 46 -37 114 -105 251 -36 72 -65 133 -65 137 -1 4 -7 13 -13
19 -7 7 -13 20 -13 29 0 9 -4 20 -9 26 -15 15 -71 127 -71 141 0 7 -3 13 -7
13 -9 0 -33 49 -33 67 0 7 -4 13 -8 13 -4 0 -16 22 -27 50 -11 27 -23 50 -27
50 -4 0 -7 3 -6 7 2 11 -14 47 -23 53 -4 3 -9 14 -11 25 -1 11 -5 22 -8 25
-10 10 -90 177 -90 188 0 7 -4 12 -9 12 -8 0 -24 37 -22 53 1 4 -4 7 -10 7 -5
0 -7 5 -4 10 3 6 1 10 -5 10 -6 0 -9 4 -5 9 3 6 -2 14 -11 19 -9 5 -15 12 -15
15 1 4 1 8 0 10 0 1 -2 10 -4 20 -2 10 -10 26 -18 35 -9 10 -19 29 -22 45 -4
15 -11 27 -17 27 -5 0 -6 5 -3 10 3 6 1 10 -4 10 -6 0 -10 3 -10 8 3 14 -23
72 -33 72 -5 0 -6 5 -3 10 3 6 2 10 -3 10 -5 0 -12 13 -15 29 -3 16 -13 36
-22 45 -9 9 -14 20 -11 25 4 5 3 11 -2 13 -8 3 -53 94 -51 104 0 4 -3 10 -8
13 -4 3 -29 51 -56 106 -26 55 -52 107 -57 115 -14 20 -32 68 -30 76 1 4 -3
10 -8 13 -10 6 -122 232 -122 245 0 4 -7 14 -15 23 -8 8 -13 19 -10 24 4 5 1
9 -4 9 -6 0 -11 9 -11 19 0 10 -7 22 -16 25 -8 3 -12 11 -8 17 3 6 3 14 -2 18
-14 10 -34 49 -34 66 0 8 -4 15 -9 15 -5 0 -15 17 -21 38 -7 20 -20 45 -29 56
-9 10 -15 20 -14 22 4 6 -120 259 -129 262 -4 2 -6 8 -2 13 3 5 0 9 -7 9 -7 0
-9 3 -6 6 7 7 -22 64 -38 76 -5 4 -7 8 -2 8 4 0 -10 33 -32 74 -22 41 -37 77
-33 80 3 3 0 6 -6 6 -7 0 -12 9 -12 20 0 11 -4 20 -9 20 -9 0 -26 48 -23 63 1
4 -2 7 -8 7 -10 0 -44 69 -42 83 1 4 -2 7 -8 7 -5 0 -16 12 -24 28 -19 35
-126 142 -143 142 -5 0 -19 9 -33 20 -14 11 -33 20 -42 20 -10 0 -18 4 -18 8
0 5 -6 9 -12 10 -7 1 -38 8 -68 17 -46 14 -204 28 -213 19z"/>
</g>
</svg>
